<?xml version="1.0" encoding="UTF-8"?>
<svg version="1.1" viewBox="0 0 1792 2136" width="1280" height="1280" xmlns="http://www.w3.org/2000/svg">
 <style>
    path {
      fill: #3fbcc0;
      stroke: white;
      stroke-width: 5;
    }
  </style>
<path transform="translate(596,29)" d="m0 0h26l25 3 20 5 21 8 18 10 12 9 10 9 9 9 10 14 9 16 8 21 5 23 1 6v22l-3 16-4 12-8 16-7 11-10 13-14 18-3 5v5l9 10 11 10 12 8 11 3 14-1 16-4 8-4 6-7 3-7 2-14v-50l-2-17-4-15-9-21-6-15-4-19v-27l4-17 6-14 8-12 11-12 11-8 10-6 15-6 16-4 9-1h12l16 2 13 4 14 7 10 8 9 8 10 15 7 16 4 18v21l-3 14-6 18-11 28-4 17-1 13v13l2 47 1 28h34l18-2 21-6 12-6 6-5-2-6-9-13-11-16-10-19-7-21-4-21-1-13v-12l2-20 5-21 7-17 10-17 13-16 9-10 11-9 15-10 17-8 18-5 21-3h29l24 3 28 6 21 6 16 6 25 12 22 12 19 12 39 26 20 14 17 12 54 39 15 11 19 13 17 12 29 19 17 11 23 14 13 8 24 14 16 9 26 14 18 10 25 11 11 3 8 1h13l14-1h18l5 4 1 3v9l-5 11-8 13-11 14-20 20-12 9-14 8-14 5-17 4-31 5-27 9-30 13-14 4-14 1-16-1h-23l-11 4-14 7-20 6-21 4-19 3-55 5-72 6-32 4-8 3-7 11-11 23-9 14-5 7h-2l-2 4-3 4h-2l-2 4-8 8-14 11-12 9-5 6-2 7-1 9-1 40-3 21-5 19-6 16-12 22-11 16-13 17-11 12-7 8-2 3h-2l-2 4-10 10-7 8-5 6h-2l-2 4-4 4 1 4 7 7 7 8 12 14 11 14 10 14 8 13 8 17 6 19 3 17 1 9v58l-3 22-4 18-7 21-8 16-7 12-11 15-10 11-7 8-6 5-14 14-8 7-12 10h-2l2 5 19 19v2h2l7 8 11 12 11 15 8 16 4 15 2 16 1 18v44l-2 23-4 20-6 16-9 15-12 15h-2l-2 4-20 20-8 7-18 18-8 11-4 8 1 3 8 4 8 10 10 18 8 19 5 17 3 17v34l-4 21-7 20-10 21-10 16-14 18-9 11-12 16-1 5 7 12 10 15 8 15 4 16 1 9v35l-4 22-5 16-7 15-8 14-10 11-5 5-9 8-12 7-18 6-16 2h-15l-3 70-3 41-3 17-6 12-6 4-7-1-10-9-4-8-3-16-2-31-2-67-30-13-18-10-12-9-11-10-10-13-8-15-7-21-3-16-2-27v-20l2-16 4-13 10-18 7-11 1-4v-8l-4-8-9-10-7-8-10-12-9-15-7-15-7-22-5-26-1-8v-37l4-21 5-13 6-10 13-18 1-4-6-11-12-17-16-20-10-13-14-19-11-19-7-16-5-21-2-17-1-21v-47l2-15 6-18 12-22 11-17 13-18 9-10 7-8 5-5-1-4-9-10-9-11-12-15-13-19-9-15-11-21-7-19-3-15-2-22-1-24v-70l3-19 5-16 8-18 8-14 11-16 12-14 8-11 3-6 1-6-13-8-11-9-11-10-8-7-12-12-9-11-12-17-12-21-10-23-7-23-4-21-1-11v-15l2-17 8-24 4-9-2-4-15-12-11-9-14-14-9-13-8-14-8-16-11-25-5-13-37 12-14 4-13 1-15-4-30-10-20-4-8-1-37-1-19-3-15-4-28-11-22-6-21-3-13-2-17-5-16-7-22-12-17-8-13-4-11-2-18-1-24-6-20-8-20-11-14-10-11-9-14-14-4-3v-3l38-10 20-7 32-14 48-24 23-13 27-15 23-14 19-12 42-28 32-22 44-30 32-22 22-15 34-23 18-12 19-12 22-12 14-6 24-7 25-5zm532 18-18 2-22 4-10 4-12 8-11 10-4 3v2l-3 1-7 8-10 13-8 16-4 14-2 14v16l2 14 5 17 7 15 7 12 10 13 7 7 3 4h2l2 4h2l1 3 8 7 4 4-1 6-10 15-10 14-15 15-14 9-12 5-13 3-15 1-16-2-25-6-4-1 2 118 1 3 28 7 14 2h32l19-3 18-5 19-9 12-8 11-9 14-14 10-14 9-17 6-19 1-10-4-10-5-6-1-3h11l51-3 24-3 12-4 11-6 14-10 12-11 11-12 10-15 9-20 4-13 3-18v-17l-3-22 1-2 6 1 8 7 7 11 8 15 11 14 7 7 1 2h2v2h2v2l8 7 11 10 14 11 12 10 12 9 19 14 18 13 43 30 22 13 27 14 23 10 30 10 27 6 13 2 12 1h18l19-3 12-4 11-6 10-9 3-4v-6l-4-5-11-5-27-9-36-16-30-15-23-13-26-15-23-14-19-12-25-16-34-23-23-16-34-24-18-13-34-24-16-11-18-12-17-11-15-9-21-12-23-12-24-10-18-6-22-5-16-2zm-535 3-23 2-21 5-19 8-19 9-22 12-18 10-27 16-33 22-14 10-16 11-20 14-19 13-18 13-11 7-20 14-23 15-20 13-19 12-20 12-21 12-16 9-34 18-40 20-23 11-26 12-3 3 23 11 21 6 18 2h19l17-2 15-3 20-6 23-10 31-16 18-10 27-16 20-12 33-21 21-14 25-17 19-14 18-13 22-18 11-10 7-9 7-10 5-4 4 1 4 11 2 20 2 19 5 19 7 16 8 14 13 16 10 10 13 10 15 9 15 7 16 5 15 3 28 2 8 2 3 3-1 4-8 3-1 2v17l4 17 5 13 7 13 8 10 11 11 18 13 21 11 19 7 15 3 7 1h26l19-3 16-4 6-4 4-6 3-12 1-8v-96l-5-1-63 8-5-1-17-16-20-20-10-13-6-13v-12l4-9 7-9 23-23 10-15 6-13 4-14 2-13v-25l-2-13-4-10-8-11-9-10-10-10-15-11-16-9-16-6-21-5-20-2zm275 4-16 2-12 6-10 9-11 11-7 10-4 9-1 6v31l3 12 6 10 17 17 11 9 11 8 12 3 25-2 15-3 10-4 10-8 3-3v-2h2l9-13 6-12 4-15v-23l-4-15-8-14-9-10-9-7-14-7-15-4-10-1zm-34 165-1 13v112l1 180 1 80 1 49 2 47 2 21 2 7 3 3 19 8 18 6 8 2h10l2-5 2-22 3-82 3-113 3-100 4-77v-124l-20-2-41-3zm-394 12-19 13-10 8-16 12-13 10-16 12-13 10-19 14-18 13-30 20-11 7-25 15-16 9-16 8-15 6-15 4-1 2 6 7 11 5 17 4 19 2 17-1 18-4 21-8 23-12 28-17 23-15 22-14 22-15 31-21 19-14 3-3-1-8-11-28-9-19-2-2zm883 19-5 5-3 7-2 9v11l3 10 6 11 9 11 25 25 8 7 11 9 15 12 20 14 19 12 18 10 16 8 16 7 24 8 15 3h25l11-4 6-7v-8l-1-2-13-5-21-12-23-15-36-24-20-14-18-13-16-12-17-13-17-14-11-9-16-13-13-9-8-4zm-846 52-11 8-10 9-8 7-10 9-8 7-10 9-11 9-16 13-13 10-19 13-11 8-24 14-16 10-5 4-1 4 4 4 12 3 22 1 18-2 15-4 20-8 15-8 16-10 16-11 14-10 19-14 14-11 18-14 14-11v-3l-18-18-8-7-9-8-4-3zm811 16-9 3-12 8-9 9-4 8 3 8 9 11 7 7 5 6 8 7 11 10 10 8 13 10 13 9 13 8 16 8 15 5 24 5 17 2h24l10-3 1-4-6-7-15-10-23-14-15-10-19-13-11-9-10-8-15-14-12-11-7-7-8-7-9-8-10-6zm-740 25-9 3-10 8-24 24-7 8-37 37-11 9-17 14-3 4 1 5 4 3 9 2h12l17-3 21-7 21-11 18-13 17-14 15-14 12-12 9-11 5-10v-8l-4-5-8-4-17-4-6-1zm652 4-13 2-10 5-5 7v12l6 14 12 16 12 13 12 12 11 9 12 9 14 8 13 6 20 6 17 4 9-2 8-4 3-3-2-6-8-7-16-11-16-15-7-8-13-16-13-18-14-19-8-8-10-5-5-1zm-599 50-12 11-6 6v2h-2l-7 8-14 17-9 14-2 7 4 13 9 17 14 19 12 13 10 10 17 13 10 6 6 2 6-1 8-6 8-7 19-11 25-11 13-4 19-2 28 1 23 3 21 5 8 3h5l3-4 2-10v-23h-80l-19-2-19-5-16-7-14-9-14-11-20-18-14-15-13-18-5-6zm555 18-9 6-13 10-12 11-11 9-15 11-15 9-15 6-19 5-16 2-16 1h-40l-24-2h-6l-2 6v25l2 5 2 1h11l34-8 15-2h19l17 2 19 5 13 5 17 8 12 8 13 10 14 10 10 5 7-1 11-8 12-11 10-10 9-11 8-9v-2h2l13-18 4-8v-7l-4-8-14-15-9-10-21-21-8-7zm-156 108-20 3-16 5-12 6-8 8-2 4 1 9 7 13 12 14 10 8 8 4 16 3 12 1h31l10-3 11-7 16-13 8-6h4v13l-3 23-4 18-5 12-7 12-14 19-12 13-9 9-2 1v2l-4 2-13 11-13 9-11 7-20 11-26 11-9 6-1 2v6l4 6 12 9 22 12 22 10 10 3h11l13-5 18-11 10-8 14-12 13-13 9-11 11-15 13-22 8-17 7-20 5-23 1-11v-27l-4-12-8-12-13-15-15-15-17-12-17-8-18-5-12-2zm-272 6-20 4-20 7-17 9-13 9-10 9-4 3v2l-3 1-10 13-7 12-6 15-4 16-1 7v21l3 17 6 18 12 23 8 12 8 10 12 13 11 10 16 12 23 15 28 16 27 14 44 22 23 11 39 19 23 11 23 12 18 11 14 10 10 9 10 13 8 16 4 17v22l-4 20-6 16-8 15-9 13-12 14-12 12v2h-2l-6 9-2 5 1 9 5 7 15 11 14 8 17 8 13 3 10-4 16-10 13-10 13-11 13-13 10-13 9-14 8-16 6-17 5-19 3-21 1-16v-21l-2-21-4-17-7-16-9-14-10-13-12-14-9-10-3-4h-2l-2-4-8-8-10-8-16-8-26-14-22-12-27-12-31-12-55-18-24-8-33-13-24-11-23-13-11-8-13-10-8-7-7-8-8-10-6-10-5-13-3-17-2-22v-11l2-9 1-2 6 1 13 11 10 7 11 4 14 2h10l18-3 16-6 14-8 13-12 7-11 3-8v-7l-4-7-8-5-15-5-14-3-7-1zm210 62-1 32v31l1 14h7l19-5 22-7 10-1-2 4-20 12-19 10-10 7-9 8-4 8v11l4 11 5 3 12-4 23-11 18-12 14-11 12-11 12-12 5-7 1-5-4-5-8-1-4-3-3-8-12-6-19-7-16-9-12-9-11-9-10-8zm-122 4-11 7-15 11-16 10-23 12-13 5-1 2 29 14 17 8 16 8 11 4h5l2-6 3-21v-50l-1-4zm-92 61 1 6 11 12 13 12 18 13 17 10 17 7 11 3h6l5-4-1-7-7-8-14-10-24-14-23-12-18-7-4-1zm-3 184-11 14-12 14-13 18-9 16-8 21-4 16-2 16-1 14v27l2 28 4 17 8 21 11 22 7 11 12 17 12 14 5 6h2l2 4 4 4h2v2l8 7 13 11 18 13 16 10 17 10 26 15 28 17 23 15 19 13 19 14 13 11 9 9 8 15 5 19v23l-5 19-6 16-9 16-8 10-7 8-3 6v8l4 8 9 10 10 8 21 13 10 4h12l14-7 14-10 12-11 7-7 11-15 10-18 8-21 5-18 3-19 1-10v-43l-4-16-8-18-12-23-12-19-11-14-10-9-18-13-39-26-41-26-21-12-26-14-27-16-16-10-16-11-11-9-10-13-8-16-9-25-4-17-1-8v-24l4-17 8-16 7-11 8-10 4-7v-9l-4-6-8-7-16-9-32-16-9-4zm128 67-3 2-1 3v56l3 53 4 40 3 10 3 5 11 7 13 5h5l4-5 3-12 2-26 2-40 1-32v-25l-2-13-4-8-9-7-15-9-11-4zm-32 29-7 4-6 9-5 15-3 12-1 14 2 12 4 12 7 16 8 14 4 4h4l3-9 1-10v-59l-2-23-3-9-3-2zm113 19-2 3-2 14-1 22v13l2 31 2 11 2 4 4-1 9-9 8-14 4-11 2-16-1-11-5-14-7-11-7-8-5-3zm-195 250-8 4-7 9-9 15-8 16-7 16-6 20-3 18v35l4 23 5 19 10 28 12 23 13 16 14 15 11 11 8 7 13 11 19 14 18 11 28 15 19 11 17 12 11 9 10 9 11 14 6 10 5 13 1 5v9l-3 11-6 12-3 12-2 15v14l2 16 3 10 6 8 6 3h9l11-4 10-7 15-12v-2l4-2v-2l3-1 9-11 8-11 9-17 6-17 3-13 1-8v-29l-4-20-7-19-10-19-12-16-12-13-10-10-11-9-13-10-18-12-22-14-14-9-16-11-17-13-15-13-12-11-10-11-9-14-6-18-2-19 1-15 4-17 7-16 9-15 2-9-4-7-11-9-26-16-17-10-15-7zm118 67-1 2 2 86 2 27 4 12 6 8 10 7 5 2h4l2-5 2-19v-80l-2-15-5-10-13-8-14-7zm-22 45-4 6-2 9v12l4 18h4l4-15 2-11v-12l-4-7zm91 13-4 6-3 17v24l2 4 4-2 4-9 2-10v-21l-3-8zm-167 207-7 5-6 10-6 16-4 27v22l4 25 5 15 9 17 10 13 12 14 10 10 8 7 15 12 24 16 22 12 28 13 13 7 12 9 12 11 9 9 12 17 6 14 3 16v25l-4 29-5 22v3l5-2 6-5 13-17 9-15 8-17 6-20 1-6v-22l-4-16-5-12-6-11-12-16-12-13-14-13-11-9-18-14-16-12-13-10-14-12-18-18-13-17-8-14-3-10-1-9 1-32 1-24-21-13-18-10-14-6-4-1zm108 58-3 7-1 13v17l2 28 4 20 4 5 7 4 4-1 3-7 1-24-1-23-3-20-4-11-3-5-5-3zm-22 7-4 9-1 11 4 12 4 1 1-6v-18l-2-8zm-50 169-6 3-7 6-10 13-4 8-2 8v25l3 27 4 19 5 13 5 10 11 16 4 5h2l-1-18-3-29v-14l2-17 5-16 7-13 13-17 4-9v-6l-4-6-8-5-10-3zm76 41-1 4-1 16v92l3 95 3 48 2 12h2l1-9 1-61v-29l-2-91-2-43-2-26-1-7zm-31 12-8 9-7 15-3 17v16l3 19 4 14 6 15 8 15 3 5 2-1 3-15 1-11v-62l-2-19-4-13-4-4zm69 17-4 9-1 8-1 27v36l1 13 3 6 7-1 5-4 4-8 3-14 1-9v-25l-2-18-4-13-8-7z"/>
<path transform="translate(906,76)" d="m0 0h6l9 5 8 7 5 8 4 13v15l-3 11-6 12-9 10-9 7-13 6-7 2h-11l-4-3v-6l5-4 11-6 4-2 2-4 6-9 4-10 2-7v-15l-8-18v-7z"/>
<path transform="translate(1012,536)" d="m0 0h14l10 3 4 4-1 4-5 4-12 4-18-6-4-4 1-5 6-3z"/>
<path transform="translate(734,541)" d="m0 0h9l10 3 2 4-2 4-5 2-20 4-8 1-5-4-1-7 6-4z"/>
<path transform="translate(868,1813)" d="m0 0"/>
</svg>
